<?xml version="1.0" encoding="UTF-8" standalone="no"?>
<!-- Generator: Adobe Illustrator 16.0.0, SVG Export Plug-In . SVG Version: 6.00 Build 0)  -->

<svg
   xmlns:dc="http://purl.org/dc/elements/1.1/"
   xmlns:cc="http://creativecommons.org/ns#"
   xmlns:rdf="http://www.w3.org/1999/02/22-rdf-syntax-ns#"
   xmlns:svg="http://www.w3.org/2000/svg"
   xmlns="http://www.w3.org/2000/svg"
   xmlns:xlink="http://www.w3.org/1999/xlink"
   xmlns:sodipodi="http://sodipodi.sourceforge.net/DTD/sodipodi-0.dtd"
   xmlns:inkscape="http://www.inkscape.org/namespaces/inkscape"
   version="1.1"
   id="Layer_1"
   x="0px"
   y="0px"
   width="963.646"
   height="301.65799"
   viewBox="0 0 963.646 301.65799"
   enable-background="new 0 0 1000 500"
   xml:space="preserve"
   inkscape:version="0.91 r13725"
   sodipodi:docname="wjrh_logo_2014.svg"><metadata
     id="metadata3874"><rdf:RDF><cc:Work
         rdf:about=""><dc:format>image/svg+xml</dc:format><dc:type
           rdf:resource="http://purl.org/dc/dcmitype/StillImage" /><dc:title></dc:title></cc:Work></rdf:RDF></metadata><defs
     id="defs3872" /><sodipodi:namedview
     pagecolor="#ffffff"
     bordercolor="#666666"
     borderopacity="1"
     objecttolerance="10"
     gridtolerance="10"
     guidetolerance="10"
     inkscape:pageopacity="0"
     inkscape:pageshadow="2"
     inkscape:window-width="1649"
     inkscape:window-height="893"
     id="namedview3870"
     showgrid="false"
     fit-margin-top="0"
     fit-margin-left="0"
     fit-margin-right="0"
     fit-margin-bottom="0"
     inkscape:zoom="1.445"
     inkscape:cx="454.42781"
     inkscape:cy="96.455556"
     inkscape:window-x="36"
     inkscape:window-y="15"
     inkscape:window-maximized="0"
     inkscape:current-layer="Layer_1" /><polygon
     points="412.637,118.848 413.394,321.517 399.834,335.103 399.077,132.433 "
     id="polygon3634"
     transform="translate(-17.849,-118.846)"
     style="fill:#fce0b4" /><g
     id="g3636"
     transform="translate(-17.849,-118.846)"><defs
       id="defs3638"><rect
         id="SVGID_1_"
         width="1000"
         height="500"
         x="0"
         y="0" /></defs><clipPath
       id="SVGID_2_"><use
         xlink:href="#SVGID_1_"
         overflow="visible"
         id="use3642"
         style="overflow:visible"
         x="0"
         y="0"
         width="100%"
         height="100%" /></clipPath><path
       clip-path="url(#SVGID_2_)"
       d="m 408.707,351.463 -13.56,13.586 c 2.247,-2.252 3.57,-4.878 3.97,-7.877 0.505,-3.799 0.758,-11.154 0.717,-22.07 l 13.56,-13.585 c 0.041,10.915 -0.211,18.271 -0.717,22.069 -0.4,3 -1.723,5.625 -3.97,7.877"
       id="path3644"
       inkscape:connector-curvature="0"
       style="fill:#fce0b4" /></g><g
     id="g3646"
     transform="translate(-17.849,-118.846)"><defs
       id="defs3648"><path
         id="SVGID_3_"
         d="m 399.834,335.102 c 0.04,10.915 -0.212,18.272 -0.717,22.07 -0.4,3 -1.723,5.625 -3.971,7.877 l 13.56,-13.586 c 2.247,-2.252 3.571,-4.877 3.97,-7.877 0.506,-3.798 0.759,-11.155 0.717,-22.069 l -13.559,13.585 z"
         inkscape:connector-curvature="0" /></defs><clipPath
       id="SVGID_4_"><use
         xlink:href="#SVGID_3_"
         overflow="visible"
         id="use3652"
         style="overflow:visible"
         x="0"
         y="0"
         width="100%"
         height="100%" /></clipPath><path
       clip-path="url(#SVGID_4_)"
       d="m 408.707,351.463 -13.56,13.586 c 2.247,-2.252 3.57,-4.878 3.97,-7.877 0.505,-3.799 0.758,-11.154 0.717,-22.07 l 13.56,-13.585 c 0.041,10.915 -0.211,18.271 -0.717,22.069 -0.4,3 -1.723,5.625 -3.97,7.877"
       id="path3654"
       inkscape:connector-curvature="0"
       style="fill:#fce0b4" /></g><g
     id="g3656"
     transform="translate(-17.849,-118.846)"><defs
       id="defs3658"><rect
         id="SVGID_5_"
         width="1000"
         height="500"
         x="0"
         y="0" /></defs><clipPath
       id="SVGID_6_"><use
         xlink:href="#SVGID_5_"
         overflow="visible"
         id="use3662"
         style="overflow:visible"
         x="0"
         y="0"
         width="100%"
         height="100%" /></clipPath><path
       clip-path="url(#SVGID_6_)"
       d="m 485.233,392.242 -13.56,13.586 c -5.078,5.087 -11.531,8.675 -19.359,10.837 -9.266,2.56 -23.255,3.838 -41.967,3.838 l 13.561,-13.585 c 18.711,0 32.7,-1.279 41.966,-3.839 7.829,-2.161 14.281,-5.75 19.359,-10.837"
       id="path3664"
       inkscape:connector-curvature="0"
       style="fill:#fce0b4" /></g><g
     id="g3666"
     transform="translate(-17.849,-118.846)"><defs
       id="defs3668"><path
         id="SVGID_7_"
         d="m 465.875,403.079 c -9.266,2.56 -23.255,3.838 -41.967,3.838 l -13.56,13.586 c 18.712,0 32.7,-1.279 41.967,-3.838 7.827,-2.161 14.28,-5.75 19.358,-10.837 l 13.56,-13.586 c -5.078,5.088 -11.531,8.676 -19.358,10.837"
         inkscape:connector-curvature="0" /></defs><clipPath
       id="SVGID_8_"><use
         xlink:href="#SVGID_7_"
         overflow="visible"
         id="use3672"
         style="overflow:visible"
         x="0"
         y="0"
         width="100%"
         height="100%" /></clipPath><path
       clip-path="url(#SVGID_8_)"
       d="m 485.233,392.242 -13.56,13.586 c -5.078,5.087 -11.531,8.675 -19.359,10.837 -5.808,1.604 -13.471,2.705 -22.989,3.303 l 13.56,-13.585 c 9.518,-0.599 17.181,-1.699 22.989,-3.304 7.829,-2.161 14.281,-5.75 19.359,-10.837"
       id="path3674"
       inkscape:connector-curvature="0"
       style="fill:#fce0b4" /><path
       clip-path="url(#SVGID_8_)"
       d="m 442.885,406.383 -13.56,13.586 c -5.668,0.356 -11.994,0.534 -18.978,0.534 l 13.561,-13.585 c 6.983,0 13.309,-0.179 18.977,-0.535"
       id="path3676"
       inkscape:connector-curvature="0"
       style="fill:#fce0b4" /></g><polygon
     points="381.647,406.918 423.908,406.918 410.348,420.504 368.087,420.504 "
     id="polygon3678"
     transform="translate(-17.849,-118.846)"
     style="fill:#fce0b4" /><polygon
     points="381.459,356.581 381.647,406.918 368.087,420.504 367.899,370.166 "
     id="polygon3680"
     transform="translate(-17.849,-118.846)"
     style="fill:#fce0b4" /><g
     id="g3682"
     transform="translate(-17.849,-118.846)"><defs
       id="defs3684"><rect
         id="SVGID_9_"
         width="1000"
         height="500"
         x="0"
         y="0" /></defs><clipPath
       id="SVGID_10_"><use
         xlink:href="#SVGID_9_"
         overflow="visible"
         id="use3688"
         style="overflow:visible"
         x="0"
         y="0"
         width="100%"
         height="100%" /></clipPath><path
       clip-path="url(#SVGID_10_)"
       d="m 497.039,118.848 0.719,192.513 c 0.107,28.827 -0.143,47.379 -0.792,55.615 -0.649,8.236 -3.66,15.673 -9.073,22.311 -5.412,6.677 -12.752,11.234 -22.018,13.794 -9.266,2.558 -23.255,3.838 -41.967,3.838 l -42.261,0 -0.188,-50.337 c 5.079,0.319 8.758,0.519 11.037,0.519 5.997,0 10.75,-1.319 14.219,-3.918 3.469,-2.599 5.456,-5.797 5.962,-9.595 0.505,-3.799 0.758,-11.155 0.717,-22.071 l -0.757,-202.668 84.402,0 z"
       id="path3690"
       inkscape:connector-curvature="0"
       style="fill:#fac165" /><path
       clip-path="url(#SVGID_10_)"
       d="m 261.19,323.476 -13.56,13.586 c 4.537,-69.729 12.159,-137.938 22.785,-204.628 l 13.56,-13.586 c -10.626,66.689 -18.248,134.899 -22.785,204.628"
       id="path3692"
       inkscape:connector-curvature="0"
       style="fill:#fce0b4" /></g><g
     id="g3694"
     transform="translate(-17.849,-118.846)"><defs
       id="defs3696"><path
         id="SVGID_11_"
         d="M 270.415,132.434 C 259.789,199.123 252.167,267.332 247.63,337.06 l 13.56,-13.586 c 4.537,-69.728 12.159,-137.938 22.785,-204.626 l -13.56,13.586 z"
         inkscape:connector-curvature="0" /></defs><clipPath
       id="SVGID_12_"><use
         xlink:href="#SVGID_11_"
         overflow="visible"
         id="use3700"
         style="overflow:visible"
         x="0"
         y="0"
         width="100%"
         height="100%" /></clipPath><path
       clip-path="url(#SVGID_12_)"
       d="m 261.19,323.476 -13.56,13.586 c 4.537,-69.729 12.159,-137.938 22.785,-204.628 l 13.56,-13.586 c -10.626,66.689 -18.248,134.899 -22.785,204.628"
       id="path3702"
       inkscape:connector-curvature="0"
       style="fill:#fce0b4" /></g><g
     id="g3704"
     transform="translate(-17.849,-118.846)"><defs
       id="defs3706"><rect
         id="SVGID_13_"
         width="1000"
         height="500"
         x="0"
         y="0" /></defs><clipPath
       id="SVGID_14_"><use
         xlink:href="#SVGID_13_"
         overflow="visible"
         id="use3710"
         style="overflow:visible"
         x="0"
         y="0"
         width="100%"
         height="100%" /></clipPath><path
       clip-path="url(#SVGID_14_)"
       d="m 224.118,406.918 -13.56,13.586 c -9.841,-44.261 -18.505,-94.598 -26.113,-151.052 l 13.56,-13.586 c 7.608,56.454 16.272,106.792 26.113,151.052"
       id="path3712"
       inkscape:connector-curvature="0"
       style="fill:#fce0b4" /></g><g
     id="g3714"
     transform="translate(-17.849,-118.846)"><defs
       id="defs3716"><path
         id="SVGID_15_"
         d="m 184.445,269.452 c 7.608,56.454 16.272,106.791 26.113,151.051 l 13.56,-13.586 c -9.841,-44.26 -18.505,-94.597 -26.113,-151.051 l -13.56,13.586 z"
         inkscape:connector-curvature="0" /></defs><clipPath
       id="SVGID_16_"><use
         xlink:href="#SVGID_15_"
         overflow="visible"
         id="use3720"
         style="overflow:visible"
         x="0"
         y="0"
         width="100%"
         height="100%" /></clipPath><path
       clip-path="url(#SVGID_16_)"
       d="m 224.118,406.918 -13.56,13.586 c -9.841,-44.261 -18.505,-94.598 -26.113,-151.052 l 13.56,-13.586 c 7.608,56.454 16.272,106.792 26.113,151.052"
       id="path3722"
       inkscape:connector-curvature="0"
       style="fill:#fce0b4" /></g><polygon
     points="224.119,406.918 329.471,406.918 315.911,420.504 210.558,420.504 "
     id="polygon3724"
     transform="translate(-17.849,-118.846)"
     style="fill:#fce0b4" /><g
     id="g3726"
     transform="translate(-17.849,-118.846)"><defs
       id="defs3728"><rect
         id="SVGID_17_"
         width="1000"
         height="500"
         x="0"
         y="0" /></defs><clipPath
       id="SVGID_18_"><use
         xlink:href="#SVGID_17_"
         overflow="visible"
         id="use3732"
         style="overflow:visible"
         x="0"
         y="0"
         width="100%"
         height="100%" /></clipPath><path
       clip-path="url(#SVGID_18_)"
       d="m 131.662,316.519 -13.56,13.586 c 2.931,-50.258 10.481,-116.148 22.611,-197.671 l 13.56,-13.586 c -12.13,81.523 -19.68,147.414 -22.611,197.671"
       id="path3734"
       inkscape:connector-curvature="0"
       style="fill:#fce0b4" /></g><g
     id="g3736"
     transform="translate(-17.849,-118.846)"><defs
       id="defs3738"><path
         id="SVGID_19_"
         d="m 140.713,132.434 c -12.13,81.523 -19.68,147.412 -22.611,197.669 l 13.56,-13.585 c 2.931,-50.258 10.481,-116.147 22.611,-197.67 l -13.56,13.586 z"
         inkscape:connector-curvature="0" /></defs><clipPath
       id="SVGID_20_"><use
         xlink:href="#SVGID_19_"
         overflow="visible"
         id="use3742"
         style="overflow:visible"
         x="0"
         y="0"
         width="100%"
         height="100%" /></clipPath><path
       clip-path="url(#SVGID_20_)"
       d="m 131.662,316.519 -13.56,13.586 c 2.931,-50.258 10.481,-116.148 22.611,-197.671 l 13.56,-13.586 c -12.13,81.523 -19.68,147.414 -22.611,197.671"
       id="path3744"
       inkscape:connector-curvature="0"
       style="fill:#fce0b4" /></g><polygon
     points="70.268,406.918 175.021,406.918 161.46,420.504 56.708,420.504 "
     id="polygon3746"
     transform="translate(-17.849,-118.846)"
     style="fill:#fce0b4" /><polygon
     points="31.409,118.848 70.268,406.918 56.708,420.504 17.849,132.434 "
     id="polygon3748"
     transform="translate(-17.849,-118.846)"
     style="fill:#fce0b4" /><g
     id="g3750"
     transform="translate(-17.849,-118.846)"><defs
       id="defs3752"><rect
         id="SVGID_21_"
         width="1000"
         height="500"
         x="0"
         y="0" /></defs><clipPath
       id="SVGID_22_"><use
         xlink:href="#SVGID_21_"
         overflow="visible"
         id="use3756"
         style="overflow:visible"
         x="0"
         y="0"
         width="100%"
         height="100%" /></clipPath><path
       clip-path="url(#SVGID_22_)"
       d="m 365.978,118.848 -36.507,288.07 -105.353,0 c -9.841,-44.261 -18.505,-94.598 -26.112,-151.053 -3.269,24.189 -10.957,74.567 -22.986,151.053 l -104.752,0 -38.859,-288.07 82.003,0 9.291,100.515 8.959,97.156 c 2.931,-50.258 10.482,-116.148 22.612,-197.671 l 87.64,0 c 1.191,8.436 4.388,40.102 9.551,95.037 l 9.725,109.591 c 4.537,-69.729 12.159,-137.938 22.785,-204.628 l 82.003,0 z"
       id="path3758"
       inkscape:connector-curvature="0"
       style="fill:#fac165" /><path
       clip-path="url(#SVGID_22_)"
       d="m 662.257,190.375 -13.56,13.586 c -0.034,-9.116 -1.896,-15.114 -5.585,-17.952 -3.689,-2.839 -10.411,-4.278 -20.167,-4.278 l 13.56,-13.586 c 9.756,0 16.479,1.439 20.167,4.278 3.689,2.839 5.551,8.836 5.585,17.952"
       id="path3760"
       inkscape:connector-curvature="0"
       style="fill:#fce0b4" /></g><g
     id="g3762"
     transform="translate(-17.849,-118.846)"><defs
       id="defs3764"><path
         id="SVGID_23_"
         d="m 622.945,181.731 c 9.756,0 16.478,1.439 20.167,4.278 3.688,2.839 5.55,8.836 5.585,17.952 l 13.56,-13.585 c -0.034,-9.116 -1.895,-15.114 -5.585,-17.953 -3.688,-2.838 -10.411,-4.277 -20.167,-4.277 l -13.56,13.585 z"
         inkscape:connector-curvature="0" /></defs><clipPath
       id="SVGID_24_"><use
         xlink:href="#SVGID_23_"
         overflow="visible"
         id="use3768"
         style="overflow:visible"
         x="0"
         y="0"
         width="100%"
         height="100%" /></clipPath><path
       clip-path="url(#SVGID_24_)"
       d="m 662.257,190.375 -13.56,13.586 c -0.028,-7.513 -1.298,-12.908 -3.809,-16.162 l 13.561,-13.586 c 2.511,3.254 3.78,8.649 3.808,16.162"
       id="path3770"
       inkscape:connector-curvature="0"
       style="fill:#fce0b4" /><path
       clip-path="url(#SVGID_24_)"
       d="m 658.449,174.213 -13.56,13.587 c -0.536,-0.695 -1.128,-1.291 -1.776,-1.791 -3.688,-2.838 -10.411,-4.278 -20.167,-4.278 l 13.561,-13.585 c 9.755,0 16.479,1.439 20.167,4.278 0.647,0.499 1.239,1.096 1.775,1.789"
       id="path3772"
       inkscape:connector-curvature="0"
       style="fill:#fce0b4" /></g><polygon
     points="662.257,190.375 662.316,206.208 648.756,219.794 648.697,203.961 "
     id="polygon3774"
     transform="translate(-17.849,-118.846)"
     style="fill:#fce0b4" /><g
     id="g3776"
     transform="translate(-17.849,-118.846)"><defs
       id="defs3778"><rect
         id="SVGID_25_"
         width="1000"
         height="500"
         x="0"
         y="0" /></defs><clipPath
       id="SVGID_26_"><use
         xlink:href="#SVGID_25_"
         overflow="visible"
         id="use3782"
         style="overflow:visible"
         x="0"
         y="0"
         width="100%"
         height="100%" /></clipPath><path
       clip-path="url(#SVGID_26_)"
       d="m 729.865,244.435 -13.561,13.586 c -6.639,6.651 -18.49,10.711 -35.494,12.15 l 13.56,-13.585 c 17.004,-1.44 28.857,-5.5 35.495,-12.151"
       id="path3784"
       inkscape:connector-curvature="0"
       style="fill:#fce0b4" /></g><g
     id="g3786"
     transform="translate(-17.849,-118.846)"><defs
       id="defs3788"><path
         id="SVGID_27_"
         d="m 694.37,256.585 -13.561,13.586 c 17.003,-1.438 28.856,-5.499 35.495,-12.149 l 13.561,-13.587 c -6.638,6.651 -18.492,10.712 -35.495,12.15"
         inkscape:connector-curvature="0" /></defs><clipPath
       id="SVGID_28_"><use
         xlink:href="#SVGID_27_"
         overflow="visible"
         id="use3792"
         style="overflow:visible"
         x="0"
         y="0"
         width="100%"
         height="100%" /></clipPath><path
       clip-path="url(#SVGID_28_)"
       d="m 729.865,244.435 -13.561,13.586 c -6.639,6.651 -18.49,10.711 -35.494,12.15 l 13.56,-13.585 c 17.004,-1.44 28.857,-5.5 35.495,-12.151"
       id="path3794"
       inkscape:connector-curvature="0"
       style="fill:#fce0b4" /></g><g
     id="g3796"
     transform="translate(-17.849,-118.846)"><defs
       id="defs3798"><rect
         id="SVGID_29_"
         width="1000"
         height="500"
         x="0"
         y="0" /></defs><clipPath
       id="SVGID_30_"><use
         xlink:href="#SVGID_29_"
         overflow="visible"
         id="use3802"
         style="overflow:visible"
         x="0"
         y="0"
         width="100%"
         height="100%" /></clipPath><path
       clip-path="url(#SVGID_30_)"
       d="m 657.81,227.821 -13.561,13.586 c 3.037,-3.044 4.549,-10.229 4.507,-21.614 l 13.561,-13.585 c 0.041,11.385 -1.47,18.57 -4.507,21.613"
       id="path3804"
       inkscape:connector-curvature="0"
       style="fill:#fce0b4" /></g><g
     id="g3806"
     transform="translate(-17.849,-118.846)"><defs
       id="defs3808"><path
         id="SVGID_31_"
         d="m 648.756,219.794 c 0.042,11.384 -1.47,18.57 -4.507,21.613 l 13.56,-13.586 c 3.038,-3.043 4.551,-10.228 4.508,-21.613 l -13.561,13.586 z"
         inkscape:connector-curvature="0" /></defs><clipPath
       id="SVGID_32_"><use
         xlink:href="#SVGID_31_"
         overflow="visible"
         id="use3812"
         style="overflow:visible"
         x="0"
         y="0"
         width="100%"
         height="100%" /></clipPath><path
       clip-path="url(#SVGID_32_)"
       d="m 657.81,227.821 -13.561,13.586 c 3.037,-3.044 4.549,-10.229 4.507,-21.614 l 13.561,-13.585 c 0.041,11.385 -1.47,18.57 -4.507,21.613"
       id="path3814"
       inkscape:connector-curvature="0"
       style="fill:#fce0b4" /></g><g
     id="g3816"
     transform="translate(-17.849,-118.846)"><defs
       id="defs3818"><rect
         id="SVGID_33_"
         width="1000"
         height="500"
         x="0"
         y="0" /></defs><clipPath
       id="SVGID_34_"><use
         xlink:href="#SVGID_33_"
         overflow="visible"
         id="use3822"
         style="overflow:visible"
         x="0"
         y="0"
         width="100%"
         height="100%" /></clipPath><path
       clip-path="url(#SVGID_34_)"
       d="m 662.708,311.201 -13.56,13.586 c -0.059,-15.434 -1.453,-24.989 -4.227,-28.667 -2.731,-3.68 -9.936,-5.519 -21.569,-5.519 l 13.56,-13.585 c 11.635,0 18.838,1.839 21.571,5.518 2.772,3.678 4.167,13.234 4.225,28.667"
       id="path3824"
       inkscape:connector-curvature="0"
       style="fill:#fce0b4" /></g><g
     id="g3826"
     transform="translate(-17.849,-118.846)"><defs
       id="defs3828"><path
         id="SVGID_35_"
         d="m 623.352,290.602 c 11.636,0 18.839,1.84 21.571,5.518 2.772,3.679 4.167,13.233 4.224,28.667 l 13.562,-13.585 c -0.058,-15.434 -1.453,-24.989 -4.225,-28.667 -2.732,-3.678 -9.937,-5.519 -21.571,-5.519 l -13.561,13.586 z"
         inkscape:connector-curvature="0" /></defs><clipPath
       id="SVGID_36_"><use
         xlink:href="#SVGID_35_"
         overflow="visible"
         id="use3832"
         style="overflow:visible"
         x="0"
         y="0"
         width="100%"
         height="100%" /></clipPath><path
       clip-path="url(#SVGID_36_)"
       d="m 662.708,311.201 -13.56,13.586 c -0.059,-15.434 -1.453,-24.989 -4.227,-28.667 -0.025,-0.036 -0.052,-0.071 -0.079,-0.106 l 13.561,-13.585 c 0.026,0.035 0.053,0.07 0.08,0.105 2.772,3.678 4.167,13.234 4.225,28.667"
       id="path3834"
       inkscape:connector-curvature="0"
       style="fill:#fce0b4" /><path
       clip-path="url(#SVGID_36_)"
       d="m 658.403,282.429 -13.561,13.586 c -2.791,-3.608 -9.968,-5.413 -21.491,-5.413 l 13.561,-13.585 c 11.523,0 18.7,1.803 21.491,5.412"
       id="path3836"
       inkscape:connector-curvature="0"
       style="fill:#fce0b4" /></g><polygon
     points="662.709,311.201 663.065,406.918 649.506,420.504 649.147,324.787 "
     id="polygon3838"
     transform="translate(-17.849,-118.846)"
     style="fill:#fce0b4" /><polygon
     points="663.065,406.918 741.43,406.918 727.87,420.504 649.505,420.504 "
     id="polygon3840"
     transform="translate(-17.849,-118.846)"
     style="fill:#fce0b4" /><polygon
     points="551.959,118.848 553.035,406.918 539.476,420.504 538.399,132.434 "
     id="polygon3842"
     transform="translate(-17.849,-118.846)"
     style="fill:#fce0b4" /><polygon
     points="553.035,406.918 637.397,406.918 623.837,420.504 539.475,420.504 "
     id="polygon3844"
     transform="translate(-17.849,-118.846)"
     style="fill:#fce0b4" /><g
     id="g3846"
     transform="translate(-17.849,-118.846)"><defs
       id="defs3848"><rect
         id="SVGID_37_"
         width="1000"
         height="500"
         x="0"
         y="0" /></defs><clipPath
       id="SVGID_38_"><use
         xlink:href="#SVGID_37_"
         overflow="visible"
         id="use3852"
         style="overflow:visible"
         x="0"
         y="0"
         width="100%"
         height="100%" /></clipPath><path
       clip-path="url(#SVGID_38_)"
       d="m 728.13,271.339 c 5.74,6.157 9.359,11.834 10.778,16.992 1.419,5.158 2.152,19.352 2.238,42.621 l 0.283,75.966 -78.364,0 -0.357,-95.717 c -0.058,-15.434 -1.453,-24.989 -4.225,-28.668 -2.733,-3.678 -9.937,-5.517 -21.571,-5.517 l 0.485,129.901 -84.362,0 -1.076,-288.071 59.733,0 c 39.822,0 66.774,1.36 80.898,4.119 14.084,2.718 25.625,9.675 34.543,20.91 8.918,11.195 13.423,29.067 13.515,53.616 0.084,22.43 -2.979,37.503 -9.228,45.22 -6.248,7.676 -18.625,12.314 -37.051,13.873 16.727,3.681 27.981,8.598 33.761,14.755 m -65.814,-65.131 -0.06,-15.833 c -0.033,-9.116 -1.896,-15.113 -5.585,-17.952 -3.688,-2.838 -10.411,-4.278 -20.167,-4.278 l 0.24,64.051 c 9.515,0 16.148,-1.159 19.938,-3.478 3.791,-2.319 5.681,-9.796 5.634,-22.51"
       id="path3854"
       inkscape:connector-curvature="0"
       style="fill:#fac165" /></g><polygon
     points="896.017,118.848 896.402,221.881 882.842,235.467 882.457,132.433 "
     id="polygon3856"
     transform="translate(-17.849,-118.846)"
     style="fill:#fce0b4" /><polygon
     points="871.412,285.933 896.641,285.933 883.081,299.519 857.853,299.519 "
     id="polygon3858"
     transform="translate(-17.849,-118.846)"
     style="fill:#fce0b4" /><polygon
     points="896.641,285.933 897.093,406.918 883.533,420.504 883.081,299.518 "
     id="polygon3860"
     transform="translate(-17.849,-118.846)"
     style="fill:#fce0b4" /><polygon
     points="897.093,406.918 981.495,406.918 967.935,420.504 883.532,420.504 "
     id="polygon3862"
     transform="translate(-17.849,-118.846)"
     style="fill:#fce0b4" /><polygon
     points="787.462,406.918 871.864,406.918 858.304,420.504 773.902,420.504 "
     id="polygon3864"
     transform="translate(-17.849,-118.846)"
     style="fill:#fce0b4" /><polygon
     points="786.386,118.848 787.462,406.918 773.902,420.504 772.826,132.434 "
     id="polygon3866"
     transform="translate(-17.849,-118.846)"
     style="fill:#fce0b4" /><polygon
     points="896.018,118.848 980.419,118.848 981.495,406.918 897.093,406.918 896.641,285.933 871.412,285.933 871.864,406.918 787.462,406.918 786.387,118.848 870.788,118.848 871.173,221.881 896.402,221.881 "
     id="polygon3868"
     transform="translate(-17.849,-118.846)"
     style="fill:#fac165" /></svg>